<svg xmlns="http://www.w3.org/2000/svg" xmlns:xlink="http://www.w3.org/1999/xlink" width="40" zoomAndPan="magnify" viewBox="0 0 30 30.000001" height="40" preserveAspectRatio="xMidYMid meet" version="1.0"><defs><clipPath id="8dfb912bc6"><path d="M 14 12 L 29.515625 12 L 29.515625 29 L 14 29 Z M 14 12 " clip-rule="nonzero"/></clipPath><clipPath id="ac1eaecd9d"><path d="M 11.71875 14.707031 L 16.753906 10.292969 L 30.339844 25.789062 L 25.304688 30.203125 Z M 11.71875 14.707031 " clip-rule="nonzero"/></clipPath><clipPath id="f434f90722"><path d="M 15.011719 12.492188 L 27.9375 23.113281 C 28.636719 23.6875 29.046875 24.539062 29.058594 25.441406 C 29.074219 26.347656 28.691406 27.210938 28.011719 27.808594 L 27.609375 28.160156 C 26.929688 28.757812 26.019531 29.023438 25.125 28.890625 C 24.230469 28.757812 23.441406 28.238281 22.960938 27.472656 L 14.125 13.269531 C 13.972656 13.019531 14.019531 12.695312 14.238281 12.503906 C 14.460938 12.3125 14.785156 12.304688 15.011719 12.492188 Z M 15.011719 12.492188 " clip-rule="nonzero"/></clipPath><clipPath id="0f6dc9f124"><path d="M 0 0.078125 L 15.285156 0.078125 L 15.285156 17 L 0 17 Z M 0 0.078125 " clip-rule="nonzero"/></clipPath><clipPath id="b875048eaa"><path d="M -2.28125 2.707031 L 2.753906 -1.707031 L 16.339844 13.789062 L 11.304688 18.203125 Z M -2.28125 2.707031 " clip-rule="nonzero"/></clipPath><clipPath id="e9b7972987"><path d="M 1.011719 0.492188 L 13.9375 11.113281 C 14.636719 11.6875 15.046875 12.539062 15.058594 13.441406 C 15.074219 14.347656 14.691406 15.210938 14.011719 15.808594 L 13.609375 16.160156 C 12.929688 16.757812 12.019531 17.023438 11.125 16.890625 C 10.230469 16.757812 9.441406 16.238281 8.960938 15.472656 L 0.125 1.269531 C -0.0273438 1.019531 0.0195312 0.695312 0.238281 0.503906 C 0.460938 0.3125 0.785156 0.304688 1.011719 0.492188 Z M 1.011719 0.492188 " clip-rule="nonzero"/></clipPath><clipPath id="42b05b0fd1"><rect x="0" width="16" y="0" height="17"/></clipPath><clipPath id="fe9bbbb8ff"><path d="M 0.660156 0 L 23.070312 0 L 23.070312 22.410156 L 0.660156 22.410156 Z M 0.660156 0 " clip-rule="nonzero"/></clipPath><clipPath id="cc8538d889"><path d="M 11.867188 0 C 5.675781 0 0.660156 5.015625 0.660156 11.207031 C 0.660156 17.394531 5.675781 22.410156 11.867188 22.410156 C 18.054688 22.410156 23.070312 17.394531 23.070312 11.207031 C 23.070312 5.015625 18.054688 0 11.867188 0 Z M 11.867188 0 " clip-rule="nonzero"/></clipPath><clipPath id="a81d48c4ff"><path d="M 0.660156 0 L 23.070312 0 L 23.070312 22.410156 L 0.660156 22.410156 Z M 0.660156 0 " clip-rule="nonzero"/></clipPath><clipPath id="5c1660df2c"><path d="M 11.867188 0 C 5.675781 0 0.660156 5.015625 0.660156 11.207031 C 0.660156 17.394531 5.675781 22.410156 11.867188 22.410156 C 18.054688 22.410156 23.070312 17.394531 23.070312 11.207031 C 23.070312 5.015625 18.054688 0 11.867188 0 Z M 11.867188 0 " clip-rule="nonzero"/></clipPath><clipPath id="a35a589af5"><rect x="0" width="24" y="0" height="23"/></clipPath><clipPath id="62b2c8f710"><path d="M 2.4375 1.777344 L 21.292969 1.777344 L 21.292969 20.636719 L 2.4375 20.636719 Z M 2.4375 1.777344 " clip-rule="nonzero"/></clipPath><clipPath id="b814f8a731"><path d="M 11.867188 1.777344 C 6.65625 1.777344 2.4375 6 2.4375 11.207031 C 2.4375 16.414062 6.65625 20.636719 11.867188 20.636719 C 17.074219 20.636719 21.292969 16.414062 21.292969 11.207031 C 21.292969 6 17.074219 1.777344 11.867188 1.777344 Z M 11.867188 1.777344 " clip-rule="nonzero"/></clipPath><clipPath id="4b22d8497b"><path d="M 0.4375 0.777344 L 19.292969 0.777344 L 19.292969 19.636719 L 0.4375 19.636719 Z M 0.4375 0.777344 " clip-rule="nonzero"/></clipPath><clipPath id="ec7914d20c"><path d="M 9.867188 0.777344 C 4.65625 0.777344 0.4375 5 0.4375 10.207031 C 0.4375 15.414062 4.65625 19.636719 9.867188 19.636719 C 15.074219 19.636719 19.292969 15.414062 19.292969 10.207031 C 19.292969 5 15.074219 0.777344 9.867188 0.777344 Z M 9.867188 0.777344 " clip-rule="nonzero"/></clipPath><clipPath id="e1dbb6b887"><rect x="0" width="20" y="0" height="20"/></clipPath><clipPath id="77a722585f"><path d="M 2 3 L 22 3 L 22 19 L 2 19 Z M 2 3 " clip-rule="nonzero"/></clipPath><clipPath id="d340f32c74"><path d="M 4.785156 0.574219 L 23.578125 8.304688 L 18.058594 21.726562 L -0.738281 14 Z M 4.785156 0.574219 " clip-rule="nonzero"/></clipPath><clipPath id="50fd4dbe24"><path d="M 4.785156 0.574219 L 23.578125 8.304688 L 18.058594 21.726562 L -0.738281 14 Z M 4.785156 0.574219 " clip-rule="nonzero"/></clipPath><clipPath id="bd0cbc1fc3"><path d="M 4.785156 0.574219 L 23.578125 8.304688 L 18.058594 21.726562 L -0.738281 14 Z M 4.785156 0.574219 " clip-rule="nonzero"/></clipPath><clipPath id="afbb0bb064"><path d="M 8 7 L 17 7 L 17 15 L 8 15 Z M 8 7 " clip-rule="nonzero"/></clipPath><clipPath id="718e9cce64"><path d="M 4.785156 0.574219 L 23.578125 8.304688 L 18.058594 21.726562 L -0.738281 14 Z M 4.785156 0.574219 " clip-rule="nonzero"/></clipPath><clipPath id="0d01b22a30"><path d="M 4.785156 0.574219 L 23.578125 8.304688 L 18.058594 21.726562 L -0.738281 14 Z M 4.785156 0.574219 " clip-rule="nonzero"/></clipPath><clipPath id="05ad386c1e"><path d="M 4.785156 0.574219 L 23.578125 8.304688 L 18.058594 21.726562 L -0.738281 14 Z M 4.785156 0.574219 " clip-rule="nonzero"/></clipPath><clipPath id="e676ce5123"><path d="M 9 9 L 16 9 L 16 14 L 9 14 Z M 9 9 " clip-rule="nonzero"/></clipPath><clipPath id="5dd1545b18"><path d="M 4.785156 0.574219 L 23.578125 8.304688 L 18.058594 21.726562 L -0.738281 14 Z M 4.785156 0.574219 " clip-rule="nonzero"/></clipPath><clipPath id="81b3d6977f"><path d="M 4.785156 0.574219 L 23.578125 8.304688 L 18.058594 21.726562 L -0.738281 14 Z M 4.785156 0.574219 " clip-rule="nonzero"/></clipPath><clipPath id="14bf237502"><path d="M 4.785156 0.574219 L 23.578125 8.304688 L 18.058594 21.726562 L -0.738281 14 Z M 4.785156 0.574219 " clip-rule="nonzero"/></clipPath><clipPath id="99b6c9524e"><path d="M 7 7 L 17 7 L 17 15 L 7 15 Z M 7 7 " clip-rule="nonzero"/></clipPath><clipPath id="d15aeb8a58"><path d="M 4.785156 0.574219 L 23.578125 8.304688 L 18.058594 21.726562 L -0.738281 14 Z M 4.785156 0.574219 " clip-rule="nonzero"/></clipPath><clipPath id="66d63c1cc9"><path d="M 4.785156 0.574219 L 23.578125 8.304688 L 18.058594 21.726562 L -0.738281 14 Z M 4.785156 0.574219 " clip-rule="nonzero"/></clipPath><clipPath id="38794e7eff"><path d="M 4.785156 0.574219 L 23.578125 8.304688 L 18.058594 21.726562 L -0.738281 14 Z M 4.785156 0.574219 " clip-rule="nonzero"/></clipPath><clipPath id="e1d646e76b"><path d="M 2 3 L 22 3 L 22 19 L 2 19 Z M 2 3 " clip-rule="nonzero"/></clipPath><clipPath id="d288749df7"><path d="M 4.785156 0.574219 L 23.578125 8.304688 L 18.058594 21.726562 L -0.738281 14 Z M 4.785156 0.574219 " clip-rule="nonzero"/></clipPath><clipPath id="afd7b38034"><path d="M 4.785156 0.574219 L 23.578125 8.304688 L 18.058594 21.726562 L -0.738281 14 Z M 4.785156 0.574219 " clip-rule="nonzero"/></clipPath><clipPath id="09a34ba6a3"><path d="M 4.785156 0.574219 L 23.578125 8.304688 L 18.058594 21.726562 L -0.738281 14 Z M 4.785156 0.574219 " clip-rule="nonzero"/></clipPath></defs><g clip-path="url(#8dfb912bc6)"><g clip-path="url(#ac1eaecd9d)"><g clip-path="url(#f434f90722)"><g transform="matrix(1, 0, 0, 1, 14, 12)"><g clip-path="url(#42b05b0fd1)"><g clip-path="url(#0f6dc9f124)"><g clip-path="url(#b875048eaa)"><g clip-path="url(#e9b7972987)"><path fill="#545454" d="M -4.722656 0.757812 L 1.140625 -4.382812 L 16.769531 13.453125 L 10.910156 18.589844 Z M -4.722656 0.757812 " fill-opacity="1" fill-rule="nonzero"/></g></g></g></g></g></g></g></g><g clip-path="url(#fe9bbbb8ff)"><g clip-path="url(#cc8538d889)"><g transform="matrix(1, 0, 0, 1, 0, 0.000000000000005692)"><g clip-path="url(#a35a589af5)"><g clip-path="url(#a81d48c4ff)"><g clip-path="url(#5c1660df2c)"><path fill="#000000" d="M 0.660156 0 L 23.070312 0 L 23.070312 22.410156 L 0.660156 22.410156 Z M 0.660156 0 " fill-opacity="1" fill-rule="nonzero"/></g></g></g></g></g></g><g clip-path="url(#62b2c8f710)"><g clip-path="url(#b814f8a731)"><g transform="matrix(1, 0, 0, 1, 2, 1)"><g clip-path="url(#e1dbb6b887)"><g clip-path="url(#4b22d8497b)"><g clip-path="url(#ec7914d20c)"><path fill="#a6a6a6" d="M 0.4375 0.777344 L 19.292969 0.777344 L 19.292969 19.636719 L 0.4375 19.636719 Z M 0.4375 0.777344 " fill-opacity="1" fill-rule="nonzero"/></g></g></g></g></g></g><g clip-path="url(#77a722585f)"><g clip-path="url(#d340f32c74)"><g clip-path="url(#50fd4dbe24)"><g clip-path="url(#bd0cbc1fc3)"><path fill="#ffd300" d="M 10.859375 3.882812 C 11.34375 3.761719 12.195312 3.746094 12.941406 4.199219 C 13.773438 4.710938 13.8125 4.589844 14.75 4.90625 C 17.28125 5.769531 18.433594 6.878906 18.980469 7.867188 C 19.527344 8.859375 19.460938 9.734375 19.535156 10.140625 C 19.582031 10.382812 19.738281 10.601562 19.9375 10.820312 C 20.148438 11.054688 20.410156 11.292969 20.648438 11.546875 C 21.152344 12.089844 21.554688 12.722656 21.285156 13.617188 C 21.007812 14.554688 20 14.660156 19.855469 14.703125 C 18.949219 14.964844 18.824219 15.648438 18.761719 16.363281 C 18.726562 16.75 18.710938 17.144531 18.621094 17.503906 C 18.527344 17.878906 18.351562 18.210938 18 18.449219 C 17.277344 18.941406 16.5625 18.78125 15.742188 18.480469 C 14.589844 18.058594 13.222656 17.34375 11.292969 18.027344 C 10.097656 18.453125 10.019531 18.40625 6.925781 17.101562 C 5.046875 16.3125 4.230469 15.6875 3.949219 15.089844 C 3.796875 14.773438 3.792969 14.460938 3.863281 14.128906 C 3.929688 13.8125 4.066406 13.480469 4.214844 13.109375 C 4.609375 12.117188 3.980469 11.503906 3.414062 10.957031 C 3.167969 10.722656 2.933594 10.5 2.777344 10.269531 C 2.664062 10.101562 2.59375 9.929688 2.582031 9.75 C 2.550781 9.183594 2.648438 8.773438 2.832031 8.476562 C 3.050781 8.125 3.390625 7.921875 3.792969 7.800781 C 4.175781 7.683594 4.613281 7.640625 5.050781 7.597656 C 5.410156 7.5625 5.773438 7.527344 6.09375 7.449219 C 6.402344 7.375 6.671875 7.257812 6.875 7.054688 C 7.140625 6.785156 7.277344 6.359375 7.214844 5.6875 C 7.148438 5.011719 7.300781 4.578125 7.566406 4.300781 C 7.835938 4.023438 8.226562 3.902344 8.65625 3.859375 C 9.144531 3.8125 9.6875 3.871094 10.144531 3.898438 C 10.429688 3.917969 10.679688 3.925781 10.859375 3.882812 Z M 10.859375 3.882812 " fill-opacity="1" fill-rule="evenodd"/><path fill="#ffffff" d="M 10.886719 3.988281 C 11.351562 3.871094 12.167969 3.859375 12.882812 4.296875 C 13.726562 4.8125 13.765625 4.6875 14.714844 5.011719 C 19.699219 6.707031 19.277344 9.359375 19.425781 10.160156 C 19.621094 11.199219 21.6875 11.882812 21.179688 13.585938 C 20.917969 14.46875 19.960938 14.554688 19.824219 14.597656 C 17.902344 15.152344 19.242188 17.472656 17.9375 18.359375 C 16.210938 19.53125 14.523438 16.765625 11.257812 17.925781 C 10.082031 18.34375 10.007812 18.28125 6.96875 17 C 3.292969 15.453125 3.738281 14.613281 4.320312 13.148438 C 5.011719 11.410156 2.75 10.753906 2.691406 9.746094 C 2.492188 6.152344 7.664062 9.265625 7.324219 5.675781 C 7.082031 3.144531 9.957031 4.21875 10.886719 3.988281 Z M 11.429688 7.320312 C 6.367188 8.132812 7.324219 14.082031 12.605469 14.539062 C 14.292969 14.683594 16.789062 12.839844 15.949219 10.277344 C 15.035156 7.472656 12.320312 7.175781 11.429688 7.320312 Z M 11.429688 7.320312 " fill-opacity="1" fill-rule="evenodd"/></g></g></g></g><g clip-path="url(#afbb0bb064)"><g clip-path="url(#718e9cce64)"><g clip-path="url(#0d01b22a30)"><g clip-path="url(#05ad386c1e)"><path fill="#ffd300" d="M 11.429688 7.320312 C 12.320312 7.175781 15.035156 7.472656 15.949219 10.277344 C 16.789062 12.839844 14.292969 14.683594 12.605469 14.539062 C 7.324219 14.082031 6.367188 8.132812 11.429688 7.320312 Z M 11.429688 7.320312 " fill-opacity="1" fill-rule="evenodd"/></g></g></g></g><g clip-path="url(#e676ce5123)"><g clip-path="url(#5dd1545b18)"><g clip-path="url(#81b3d6977f)"><g clip-path="url(#14bf237502)"><path fill="#ffffff" d="M 14.835938 9.460938 C 14.980469 9.695312 15.101562 9.960938 15.199219 10.261719 C 15.894531 12.378906 13.828125 13.902344 12.433594 13.785156 C 11.152344 13.671875 10.175781 13.167969 9.546875 12.496094 C 10.148438 12.839844 10.886719 13.074219 11.753906 13.152344 C 13.253906 13.285156 15.457031 11.699219 14.835938 9.460938 Z M 14.835938 9.460938 " fill-opacity="1" fill-rule="evenodd"/></g></g></g></g><g clip-path="url(#99b6c9524e)"><g clip-path="url(#d15aeb8a58)"><g clip-path="url(#66d63c1cc9)"><g clip-path="url(#38794e7eff)"><path fill="#000000" d="M 11.410156 7.210938 C 12.328125 7.066406 15.113281 7.367188 16.054688 10.242188 C 16.574219 11.832031 15.855469 13.15625 14.820312 13.929688 C 14.125 14.441406 13.292969 14.707031 12.597656 14.648438 C 9.894531 14.414062 8.304688 12.765625 8.03125 11.082031 C 7.753906 9.382812 8.800781 7.628906 11.410156 7.210938 Z M 11.445312 7.429688 C 8.992188 7.824219 7.988281 9.449219 8.246094 11.046875 C 8.507812 12.652344 10.039062 14.207031 12.613281 14.429688 C 13.265625 14.484375 14.039062 14.230469 14.6875 13.75 C 15.65625 13.03125 16.332031 11.796875 15.84375 10.3125 C 14.953125 7.582031 12.316406 7.289062 11.445312 7.429688 Z M 11.445312 7.429688 " fill-opacity="1" fill-rule="evenodd"/></g></g></g></g><g clip-path="url(#e1d646e76b)"><g clip-path="url(#d288749df7)"><g clip-path="url(#afd7b38034)"><g clip-path="url(#09a34ba6a3)"><path fill="#000000" d="M 10.859375 3.882812 C 11.34375 3.761719 12.195312 3.746094 12.941406 4.199219 C 13.773438 4.710938 13.8125 4.589844 14.75 4.90625 C 17.28125 5.769531 18.433594 6.878906 18.980469 7.867188 C 19.527344 8.859375 19.460938 9.734375 19.535156 10.140625 C 19.582031 10.382812 19.738281 10.601562 19.9375 10.820312 C 20.148438 11.054688 20.410156 11.292969 20.648438 11.546875 C 21.152344 12.089844 21.554688 12.722656 21.285156 13.617188 C 21.007812 14.554688 20 14.660156 19.855469 14.703125 C 18.949219 14.964844 18.824219 15.648438 18.761719 16.363281 C 18.726562 16.75 18.710938 17.144531 18.621094 17.503906 C 18.527344 17.878906 18.351562 18.210938 18 18.449219 C 17.277344 18.941406 16.5625 18.78125 15.742188 18.480469 C 14.589844 18.058594 13.222656 17.34375 11.292969 18.027344 C 10.097656 18.453125 10.019531 18.40625 6.925781 17.101562 C 5.046875 16.3125 4.230469 15.6875 3.949219 15.089844 C 3.796875 14.773438 3.792969 14.460938 3.863281 14.128906 C 3.929688 13.8125 4.066406 13.480469 4.214844 13.109375 C 4.609375 12.117188 3.980469 11.503906 3.414062 10.957031 C 3.167969 10.722656 2.933594 10.5 2.777344 10.269531 C 2.664062 10.101562 2.59375 9.929688 2.582031 9.75 C 2.550781 9.183594 2.648438 8.773438 2.832031 8.476562 C 3.050781 8.125 3.390625 7.921875 3.792969 7.800781 C 4.175781 7.683594 4.613281 7.640625 5.050781 7.597656 C 5.410156 7.5625 5.773438 7.527344 6.09375 7.449219 C 6.402344 7.375 6.671875 7.257812 6.875 7.054688 C 7.140625 6.785156 7.277344 6.359375 7.214844 5.6875 C 7.148438 5.011719 7.300781 4.578125 7.566406 4.300781 C 7.835938 4.023438 8.226562 3.902344 8.65625 3.859375 C 9.144531 3.8125 9.6875 3.871094 10.144531 3.898438 C 10.429688 3.917969 10.679688 3.925781 10.859375 3.882812 Z M 10.914062 4.09375 C 10.71875 4.144531 10.445312 4.140625 10.128906 4.121094 C 9.683594 4.089844 9.15625 4.035156 8.675781 4.078125 C 8.304688 4.117188 7.960938 4.214844 7.726562 4.453125 C 7.496094 4.695312 7.378906 5.078125 7.433594 5.667969 C 7.503906 6.429688 7.335938 6.902344 7.03125 7.210938 C 6.585938 7.660156 5.832031 7.746094 5.070312 7.820312 C 4.648438 7.859375 4.226562 7.898438 3.859375 8.011719 C 3.507812 8.117188 3.210938 8.289062 3.023438 8.59375 C 2.855469 8.859375 2.773438 9.230469 2.804688 9.738281 C 2.8125 9.917969 2.90625 10.085938 3.039062 10.25 C 3.253906 10.527344 3.578125 10.796875 3.867188 11.097656 C 4.378906 11.632812 4.789062 12.269531 4.421875 13.191406 C 4.277344 13.550781 4.144531 13.871094 4.078125 14.171875 C 4.019531 14.457031 4.019531 14.726562 4.148438 14.996094 C 4.277344 15.277344 4.539062 15.554688 4.984375 15.859375 C 5.445312 16.175781 6.101562 16.515625 7.011719 16.898438 C 9.996094 18.15625 10.066406 18.230469 11.21875 17.820312 C 13.210938 17.113281 14.625 17.835938 15.820312 18.273438 C 16.566406 18.550781 17.21875 18.714844 17.875 18.265625 C 18.179688 18.0625 18.324219 17.773438 18.40625 17.449219 C 18.492188 17.101562 18.507812 16.71875 18.539062 16.34375 C 18.613281 15.539062 18.777344 14.785156 19.792969 14.488281 C 19.921875 14.453125 20.828125 14.382812 21.074219 13.554688 C 21.316406 12.75 20.9375 12.183594 20.484375 11.699219 C 20.199219 11.386719 19.878906 11.109375 19.648438 10.820312 C 19.480469 10.613281 19.359375 10.40625 19.320312 10.179688 C 19.246094 9.785156 19.316406 8.933594 18.785156 7.976562 C 18.257812 7.015625 17.132812 5.949219 14.679688 5.117188 C 13.71875 4.789062 13.679688 4.910156 12.824219 4.390625 C 12.140625 3.96875 11.359375 3.984375 10.914062 4.09375 Z M 10.914062 4.09375 " fill-opacity="1" fill-rule="evenodd"/></g></g></g></g></svg>